<?xml version="1.0" encoding="UTF-8"?>
<!-- Generator: Adobe Illustrator 16.0.0, SVG Export Plug-In . SVG Version: 6.00 Build 0)  -->
<!DOCTYPE svg PUBLIC "-//W3C//DTD SVG 1.1//EN" "http://www.w3.org/Graphics/SVG/1.1/DTD/svg11.dtd">
<svg version="1.1" id="Layer_3" xmlns="http://www.w3.org/2000/svg" xmlns:xlink="http://www.w3.org/1999/xlink" x="0px" y="0px" width="892.914px" height="344.713px" viewBox="0 0 892.914 344.713" enable-background="new 0 0 892.914 344.713" xml:space="preserve">
<g>
	<path d="M785.11,84.26c-0.747-0.561-3.375,0.939-12.568,1.503c-4.486,0.273-24.763,1.159-45.108,2.07   c5.235-7.517,9.899-14.155,11.323-16.278c6.2-9.248,8.296-11.621,7.32-13.032c-0.571-0.825-3.691-0.508-6.922,0.134   c-3.452,0.682-6.134,1.679-6.134,1.679c-1.862,1.96-12.773,15.95-22.096,28.242c-14.872,0.679-27.186,1.272-29.616,1.5   c-3.751,0.28-7.786,1.407-7.881,2.324c-0.117,1.098,1.199,1.227,4.55,1.167c6.377-0.119,17.446-0.352,29.656-0.632   c-4.458,5.937-8.176,11.002-9.754,13.402c-3.357,5.104-9.771,14.009-14.572,23.333c-4.583,5.349-16.567,18.963-25.198,25.417   c-3.356,2.512-7.866,5.207-11.469,5.043c-1.813-0.086-3.103-1.27-2.889-4.035c0.752-9.634,21.249-28.186,23.037-38.718   c1.467-8.628-3.223-14.07-12.656-14.363c-5.568-0.171-11.225,2.129-16.337,5.349c-7.32,4.615-12.554,9.562-18.052,14.622   c-2.385,2.192-4.95,4.85-5.622,4.51c-0.903-0.452,0.933-2.745,1.49-3.669c0.843-1.404,2.722-3.83,4.687-6.691   c6.15-8.979,8.204-10.522,7.426-11.764c-0.589-0.95-3.26-0.636-6.822-0.076c-2.891,0.455-6.935,1.548-6.935,1.548   c-1.118,1.438-3.718,4.893-7.169,9.165c-8.281,10.251-17.969,22.195-38.285,36.55c-9.365,6.617-16.9,9.477-23.208,9.221   c-5.871-0.244-7.735-4.951-7.569-10.259c0.172-5.442,2.159-11.108,5.262-16.549c2.591,0.134,7.02,0.036,12.456-0.775   c9.17-1.366,32.689-7.871,34.26-22.045c0.752-6.754-4.013-8.734-7.48-9.322c-9.895-1.67-23.669,3.35-31.412,7.529   c-11.003,5.943-27.265,19.125-27.14,36.486c0.106,14.499,11.373,17.867,20.363,18.016c10.82,0.176,21.123-6.789,23.988-8.579   c7.022-4.392,17.503-13.585,19.087-14.981c1.847-1.625,4.034-3.8,4.598-3.379c0.724,0.544-0.601,2.256-1.321,3.379   c-2.336,3.653-5.778,7.975-9.053,12.506c-3.895,5.387-5.879,8.008-5.379,9.134c0.467,1.05,4.95,1.146,7.943,0.87   c2.648-0.246,4.784-0.906,6.812-2.186c3.172-2,5.567-5.823,7.753-8.758c5.753-7.719,10.254-13.91,15.058-19.157   c8.744-9.559,18.802-18.563,25.987-23.04c3.371-2.104,7.964-4.593,11.787-4.292c1.495,0.119,3.911,0.646,3.442,4.906   c-1.041,9.469-23.931,25.261-25.061,40.271c-0.655,8.75,4.775,12.514,11.896,12.843c6.943,0.32,12.645-2.683,18.713-7.298   c5.227-3.979,10.331-9.037,14.466-13.527c1.781-1.936,2.939-3.676,3.691-3.425c0.792,0.267-0.186,2.027-0.589,3.927   c-0.397,1.9-0.695,3.74-0.675,5.484c0.175,14.252,8.696,21.118,21.752,21.096c11.612-0.021,19.991-5.105,24.218-7.522   c8.941-5.112,16.83-12.896,20.102-19.315c3.509-6.876,2.439-10.963,0.575-10.192c-0.927,0.382-0.151,3.003-3.274,8.672   c-2.462,4.473-7.552,11.658-19.725,18.811c-2.834,1.668-10.203,6.224-20.439,6.35c-10.629,0.129-10.003-8.34-10.031-10.719   c-0.16-13.134,13.354-33.827,23.299-48.817c2.877-4.338,6.688-9.888,10.486-15.367c20.797-0.495,40.45-1.005,42.761-1.174   c6.076-0.435,10.466-0.937,14.261-2.624C784.163,87.419,786.119,85.018,785.11,84.26z M569.206,108.895   c4.101-2.333,8.33-3.998,11.596-3.889c3.508,0.116,4.077,3.297,2.519,7.146c-2.499,6.164-10.477,14.915-27.677,18.781   c-5.033,1.135-8.719,1.287-10.92,1.214C551,122.479,560.527,113.826,569.206,108.895z"/>
	<path d="M223.981,189.209c1.004,1.668-1.652,1.945-6.5,5.574c-20.408,15.284-29.169,34.023-46.73,69.672   c-15.464,31.4-37.107,56.18-73.006,70.025c-21.215,8.18-38.955,10.678-57.044,10.17c-6.983-0.193-40.379-2.596-40.699-27.398   c-0.286-21.984,22.198-29.506,34.419-29.242c10.108,0.213,14.238,2.738,16.768,5.293c1.387,1.404,2.474,3.072,2.934,5.559   c0.535,2.877-0.68,5.016-2.13,4.316c-0.555-0.266-0.234-1.59-0.712-3.262c-0.492-1.705-1.376-3.502-3.641-5.189   c-3.531-2.641-8.569-3.533-14.475-3.475c-10.02,0.107-29.516,6.705-29.324,26c0.206,20.375,27.243,23.715,37.188,23.424   c16.891-0.486,32.321-4.918,51.05-16.553c24.126-14.986,42.45-37.176,56.473-56.768c22.564-31.518,35.572-49.034,51.036-62.947   c8.736-7.861,14.386-11.084,17.392-12.832C219.981,189.825,223.31,188.08,223.981,189.209z"/>
	<path d="M184.04,167.969c-8.158-0.329-16.002-0.158-23.522,0.402c-6.52-11.952-19.968-19.979-39.601-20.719   c-37.891-1.432-64.853,21.145-72.296,36.854c-1.513,3.205-2.771,6.516-3.237,10.564c-0.211,1.872-0.169,3.461-0.037,4.821   c0.28,2.845,1.201,4.151,2.462,3.593c1.101-0.49,0.801-1.965,0.732-3.971c-0.04-1.307-0.066-2.854,0.395-5.426   c0.58-3.256,1.315-5.479,3.14-8.959c10.157-19.421,38.526-36.002,68.8-33.998c14.74,0.977,25.841,7.199,31.208,18.061   c-49.197,5.769-82.914,28.22-95.453,39.222C49.655,214.542,31.657,230.85,31.251,254c-0.446,25.314,23.328,29.793,33.291,29.824   c13.288,0.043,27.277-2.457,47.374-13.496c30.059-16.51,51.248-47.755,53.364-77.367c0.541-7.549-0.595-15.254-3.194-21.359   c7.417-0.541,14.772-0.643,21.961-0.283c25.775,1.299,61.674,10.982,58.097,51.709c-1.487,16.93-17.472,46.379-45.641,45.977   c-4.649-0.066-9.648-1.361-11.984-5.438c-1.061-1.861-1.175-3.234-1.244-4.834c-0.085-2.125,1.121-4.13-0.435-4.539   c-1.612-0.422-2.399,3.498-2.419,5.148c-0.025,1.973,0.377,3.494,0.995,5.116c1.661,4.348,6.686,7.532,12.859,8.456   c26.444,3.951,59.289-18.85,61.142-49.543C256.188,210.661,252.974,170.725,184.04,167.969z M155.342,191.708   c-4.061,37.478-43.567,88.266-91.547,88.266c-18.532,0-28.918-11.405-28.666-25.724c0.332-19.121,12.607-33.545,23.733-42.943   c25.456-21.498,60.29-34.834,94.596-38.882C155.439,177.884,156.143,184.325,155.342,191.708z"/>
	<path d="M259.408,276.335c-10.804,5.286-21.904,14.97-35.981,33.534c-3.146,4.145-9.608,12.652-12.476,14.801   c-2.024,1.52-4.377,2.42-7.403,2.742c-1.934,0.211-7.804,0.139-8.155-0.871c-0.369-1.039,0.783-2.916,5.504-9.129   c8.502-11.188,24.949-34.229,27.537-38.045c2.313-3.422,5.293-7.99,6.717-9.756c0,0,3.772-1.142,6.094-1.498   c4.221-0.648,6.637-0.797,7.286,0.119c0.901,1.26-0.986,3.412-7.406,12.592c-1.79,2.564-4.043,5.568-4.669,6.443   c-0.532,0.748-2.399,3.082-1.801,3.629c1.012,0.924,4.289-3.025,6.128-4.879c5.728-5.781,14.372-14.133,23.25-19.387   c2.313-1.365,6.968-4.252,13.271-4.252c5.504,0,7.031,2.762,6.84,4.752c-0.22,2.256-2.219,5.255-9.102,5.881   C269.396,273.528,265.118,273.534,259.408,276.335z"/>
	<path d="M393.599,262.254c-3.978,0.117-4.192,4.001-3.929,6.632c0.191,1.874,0.568,4.745-0.126,10.257   c-1.999,15.885-13.008,29.844-24.2,38.414c-4.818,3.686-11.598,7.963-17.354,7.713c-5.539-0.238-4.169-8.254-1.772-13.48   c4.744-10.352,18.052-26.674,22.37-32.396c3.409-4.52,7.072-9.413,6.857-11.049c-0.211-1.549-3.597-1.43-7.537-0.707   c-2.86,0.523-6.657,1.666-6.657,1.666c-5.773,5.463-19.136,14.264-29.07,13.994c-0.44-0.01-0.869-0.047-1.287-0.1   c0.432-1.467,0.758-2.881,0.929-4.206c1.335-10.31-6.342-12.384-10.892-12.954c-11.191-1.395-23.948,3.461-31.809,7.608   c-11.692,6.169-28.301,20.173-28.178,37.708c0.106,14.645,12.521,17.549,20.469,17.549c6.276,0,13.728-1.76,22.63-8.854   c10.992-8.762,20.857-21.785,25.352-32.664c0.638,0.025,1.358,0.025,2.199-0.006c7.609-0.289,12.96-3.641,15.247-4.887   c2.754-1.5,5.087-3.594,5.579-3.283c1.004,0.626-2.339,3.346-4.252,5.375c-5.127,5.443-17.326,17.461-17.778,27.957   c-0.558,13.131,10.483,15.617,16.113,15.617c4.973,0,12.09-1.086,22.633-8.363c17.383-12.008,31.932-34.033,31.932-47.409   C401.067,266.571,397.742,262.135,393.599,262.254z M324.75,277.979c-1.155,9.406-10.143,27.58-23.265,39.367   c-5.982,5.373-12.627,8.145-17.614,8.145c-5.591,0-7.887-4.914-7.715-10.273c0.509-16.398,17.322-34.842,31.78-43.055   c3.565-2.027,8.493-4.028,11.801-3.799C322.525,268.556,325.777,269.682,324.75,277.979z"/>
	<path d="M886.059,262.379c-6.302,0-10.958,2.887-13.268,4.252c-8.882,5.254-17.501,13.633-23.254,19.387   c-1.553,1.551-5.198,5.803-6.214,4.879c-0.595-0.547,1.353-2.881,1.891-3.629c0.626-0.875,2.877-3.879,4.666-6.443   c6.417-9.18,8.308-11.332,7.406-12.592c-0.648-0.916-3.036-0.863-7.24-0.119c-2.084,0.369-5.716,1.498-5.716,1.498   c-1.421,1.766-3.774,5.006-5.885,8.002c-0.646,0.924-4.109,5.729-6.608,9.025c-4.549,5.227-18.646,21.148-31.983,31.84   c-3.271,2.625-7.529,5.48-9.831,5.051c-2.17-0.402-2.56-2.354-2.25-5.65c1.121-12.082,14.84-30.041,19.636-36.863   c5.985-8.518,8.218-11.656,7.48-12.947c-0.497-0.871-3.472-0.809-7.518-0.152c-3.912,0.633-6.565,1.602-6.565,1.602   c-1.581,1.869-7.071,8.66-9.445,11.564c-2.318,2.84-5.106,6.193-8.801,10.695c-3.572,4.361-18.244,21.053-26.153,26.965   c-3.357,2.512-7.518,5.307-10.62,4.787c-2.625-0.439-3.229-2.354-2.934-5.65c1.035-11.496,16.939-32.117,20.139-36.637   c5.205-7.347,8.407-11.79,7.715-13.145c-0.448-0.867-2.63-1.025-7.097-0.241c-2.837,0.502-6.708,1.661-6.708,1.661   c-1.33,1.619-7.178,8.254-9.957,11.561c-8.358,9.947-18.018,21.408-36.496,34.975c-9.236,6.781-16.511,9.389-22.607,9.389   c-5.539,0-7.78-4.695-7.614-10.002c0.174-5.484,2.19-11.156,5.333-16.637c2.599,0.053,7.183-0.049,12.642-0.896   c8.444-1.312,32.812-7.662,34.386-21.836c0.752-6.752-4.121-8.838-7.609-9.32c-9.791-1.358-24.092,3.348-31.835,7.527   c-8.253,4.457-17.62,10.801-23.899,23.02c-4.295,5.785-11.444,14.914-17.906,20.859c-3.086,2.846-7.947,6.49-11.075,6.098   c-2.868-0.359-3.386-3.811-3.003-7.113c1.253-10.758,11.842-30.754,22.391-47.107c4.115-6.376,9.079-13.891,13.857-21.064   c22.277,2.849,38.746,2.256,50.762,2.149c36.756-0.323,88.581-10.138,124.594-35.224c35.227-24.533,38.111-43.957,38.641-52.941   c0.606-10.243-4.682-41.074-58.148-40.218c-34.966,0.561-73.349,20.288-86.485,44.205c-2.19,3.995-3.562,7.757-3.954,11.319   c-0.596,5.346,1.181,9.281,3.094,8.168c1.467-0.851-0.672-2.724-0.012-7.953c0.387-3.037,1.587-7.064,4.898-11.807   c18.384-26.374,54.825-35.577,82.153-35.577c28.767,0,49.75,11.511,49.75,35.784c0,24.518-27.46,43.041-31.741,45.922   c-5.496,3.699-45.497,33.114-118.786,33.456c-18.166,0.085-34.837-1.503-50.176-4.144c5.487-8.177,10.226-15.148,12.41-18.304   c6.58-9.481,8.416-11.517,7.624-13.032c-0.504-0.962-4.627-0.613-7.858,0.119c-3.125,0.707-5.364,1.607-5.364,1.607   c-1.707,2.176-10.717,14.287-20.054,26.996c-37.923-8.791-69.186-23.705-92.607-33.002c-25.516-10.133-58.769-21.194-86.943-25.57   c16.988-23.476,27.303-44.908,39.286-63.703c6.02-9.448,8.333-11.448,7.396-12.948c-0.595-0.949-3.829-0.752-7.735-0.111   c-2.484,0.409-7.363,1.681-7.363,1.681c-1.406-0.568-6.477-2.944-15.655-3.115c-14.221-0.268-25.661,3.899-32.353,7.499   c-6.279,3.371-14.967,9.572-21.089,17.683c-6.671,5.206-16.434,11.006-28.584,13.096c17.778-38.75,34.571-70.03,48.377-90.612   c11.913-17.754,22.942-29.456,36.167-39.308c4.118-3.068,8.059-5.069,7.16-8.224c-0.897-3.157-6.082-3.085-9.665-2.637   c-8.095,1.012-16.036,3.124-26.067,7.153c-26.639,10.699-50.324,28.947-72.845,49.914c-7.334-22.437-23.845-40.152-45.366-39.163   c-28.364,1.306-37.757,28.078-37.757,45.283c0,21.366,8.947,38.604,21.726,51.883c-22.218,19.572-56.987,43.486-96.765,45.612   c-48.521,2.594-57.336-23.949-57.382-37.082c-0.137-35.938,38.143-61.738,76.786-62.589c33.908-0.748,43.91,13.261,44.828,28.81   c0.976,16.54-18.101,46.038-54.396,46.315c-4.941,0.036-8.584-1.098-10.74-2.408c-1.933-1.175-3.223-2.412-4.061-4.551   c-0.541-1.386-0.529-3.211-1.847-2.97c-0.789,0.147-1.341,1.973-0.738,3.985c0.68,2.28,1.51,3.856,4.1,5.8   c3.563,2.677,9.585,3.418,13.131,3.416c33.471-0.029,58.24-24.879,58.357-50.115c0.106-21.557-18.069-37.208-48.342-36.895   c-37.431,0.386-83.309,27.33-81.319,71.103c1.584,34.86,37.537,43.226,60.25,43.74c16.897,0.376,64.802-1.227,107.852-43.503   c11.043,9.269,28.254,17.238,42.521,19.6c-0.572,1.457-2.545,4.838-4.444,7.956c-4.066,6.679-5.933,10.054-5.839,11.267   c0.129,1.625,4.192,1.507,10.337,0.943c6.123-0.567,11.767-1.464,14.944-4.015c3.491-2.81,5.158-6.282,7.091-10.2   c1.043-2.121,1.51-3.031,2.54-5.118c8.169-1.315,14.368-3.596,19.91-6.474c1.919-0.996,4.689-2.907,5.096-2.495   c0.455,0.462-0.692,2.669-1.227,4.497c-0.661,2.264-1.101,4.61-1.167,7.027c-0.414,14.496,9.56,17.965,18.364,17.447   c7.691-0.453,13.565-4.738,16.628-7.177c5.099-4.055,11.761-10.671,14.906-13.884c2.508-2.559,4.655-5.07,5.407-4.818   c1.501,0.498-1.732,4.873-4.298,8.655c-2.965,4.384-10.838,16.733-22.404,31.583c-13.365-1.439-26.842-2.234-44.242-1.42   c-44.056,2.061-91.718,18.416-91.91,47.963c-0.106,16.799,13.408,23.191,30.445,24.338c20.886,1.412,51.829-5.969,81.962-27.66   c12.511-9.005,25.775-22.309,36.31-36.271c24.933,5.814,50.788,16.646,85.614,31.867c37.628,16.447,67.93,24.914,92.293,29.244   c-5.351,7.338-12.511,17.221-15.536,21.634c-3.11,4.538-8.197,11.646-12.613,19.431c-3.297,4.568-16.376,22.357-25.918,30.436   c-3.017,2.553-7.043,5.889-10.092,5.889c-2.562,0-2.928-2.906-2.576-6.201c1.296-12.088,16.045-32.232,18.87-36.637   c4.876-7.602,8.069-11.444,7.194-12.947c-0.558-0.949-4.043-0.663-7.749-0.151c-2.362,0.323-5.962,1.146-7.438,1.654   c0,0-3.869-3.237-14.286-3.474c-13.809-0.311-24.949,4.023-32.378,7.923c-6.079,3.191-14.066,9.087-20.014,16.649   c-4.035,4.389-11.69,13.324-27.025,24.627c-8.922,6.572-16.899,9.756-21.795,9.354c-5.416-0.449-7.098-4.232-6.932-9.531   c0.509-16.238,17.366-34.498,31.678-42.635c4.106-2.327,7.489-3.757,10.285-3.757c2.812,0,3.392,1.329,3.903,3.626   c0.283,1.285,0.307,3.369,0.438,5.762c0.146,2.703,1.353,5.881,4.639,5.504c3.748-0.432,6.288-5.797,4.012-10.745   c-1.962-4.259-6.754-6.045-11.944-6.446c-10.349-0.806-23.05,3.318-30.771,7.527c-0.041,0.02-0.078,0.043-0.115,0.062   c-7.549,3.524-15.821,8.9-25.44,8.58c-0.944-0.033-1.919-0.178-2.754-0.389c0.341-1.236,0.612-2.439,0.758-3.573   c1.335-10.31-6.343-12.384-10.886-12.954c-11.195-1.395-23.951,3.461-31.81,7.608c-11.695,6.169-28.3,20.173-28.183,37.708   c0.106,14.645,12.519,17.549,20.471,17.549c6.279,0,13.731-1.76,22.63-8.854c11.215-8.939,21.269-22.318,25.63-33.328   c0.887,0.109,2.036,0.168,3.549,0.135c2.685-0.053,5.141-0.469,7.337-1.061c1.484-0.396,2.156-0.666,2.482-0.58   c0.752,0.184-1.616,2.254-3.017,3.914c-4.924,5.842-8.102,12.824-8.305,21.371c-0.34,14.021,10.467,18.303,19.462,18.303   c9.997,0,17.758-4.951,22.876-8.24c4.636-2.973,11.719-8.73,17.243-13.783c2.073-1.9,3.334-3.336,3.992-3.143   c0.837,0.25-0.581,4.146-0.729,7.467c-0.652,14.496,8.99,17.924,17.486,17.402c7.423-0.447,13.207-4.771,16.241-7.172   c5.342-4.227,11.75-10.838,14.652-13.883c2.327-2.443,5.771-6.586,6.614-5.947c0.774,0.586-0.689,2.637-2.079,5.809   c-1.296,2.951-2.225,6.486-2.399,8.793c-0.646,8.291,5.104,11.906,11.232,11.906c6.969,0,11.676-2.973,17.223-7.83   c4.602-4.035,9.208-9.188,13.188-14.076c1.713-2.109,2.214-3.146,2.892-2.98c0.5,0.127,0.3,1.188-0.157,3.168   c-0.463,1.98-0.744,3.912-0.798,5.758c-0.352,11.828,7.148,16.186,13.045,16.186c8.559,0,12.662-3.83,17.552-8.283   c3.26-2.971,6.18-6.369,8.891-9.648c1.458-1.76,3.651-5.016,4.209-4.541c0.506,0.428-0.195,2.525-0.163,5   c0.169,14.697,10.605,18.02,19.599,18.02c10.812,0,18.39-5.082,23.514-8.373c7.397-4.736,16.677-13.113,20.635-16.74   c0.749-0.689,2.742-2.934,3.365-2.684c0.932,0.373-0.936,2.971-2.165,6.197c-1.132,2.977-1.858,6.385-1.858,8.793   c0,8.371,5.599,11.822,11.172,11.822c6.777,0,11.85-2.615,17.818-7.131c4.151-3.145,9.508-8.426,14.814-14.006   c1.613-1.693,3.5-4.125,4.249-3.754c1.021,0.514-2.29,4.754-3.082,10.004c-1.507,9.959,3.051,14.887,10.691,14.887   c6.628,0,11.424-3.295,16.728-7.42c3.881-3.031,7.938-6.992,11.781-10.857c2.843-2.861,4.759-4.674,5.359-4.609   c1.246,0.145-0.063,1.43-2.379,4.576c-2.017,2.744-4.667,5.893-6.209,7.924c-4.721,6.213-6.088,8.09-5.719,9.129   c0.355,1.01,5.803,1.082,7.732,0.871c3.025-0.322,5.379-1.223,7.406-2.742c2.865-2.148,9.33-10.656,12.473-14.801   c14.078-18.564,25.182-28.248,35.981-33.534c5.713-2.802,9.988-2.808,15.636-3.323c6.88-0.626,8.879-3.625,9.099-5.881   C893.091,265.141,891.563,262.379,886.059,262.379z M710.843,272.815c4.104-2.334,7.869-4.055,11.43-3.891   c3.946,0.18,3.849,3.68,2.728,7.146c-1.876,5.818-11.258,15.176-27.462,18.74c-6.091,1.34-9.422,1.262-11.173,1.262   C692.634,286.19,702.01,277.831,710.843,272.815z M344.729,111.931c-9.519-11.857-15.999-27.448-15.559-49.358   c0.423-20.511,11.861-37.985,29.001-39.504c18.338-1.628,34.592,14.832,41.649,36.604c-18.498,17.324-34.966,33.934-46.527,44.62   C350.663,106.729,347.24,110,344.729,111.931z M353.98,120.807c2.582-2.617,4.44-4.561,7.097-7.416   c14.655-15.723,30.194-35.764,40.748-47.038c1.45,6.557,2.316,14.879,2.048,22.649c-0.841,24.25-5.725,42.26-9.402,51.562   C382.604,138.682,365.759,131.487,353.98,120.807z M403.815,129.298c-2.125,3.481-2.29,3.969-3.042,3.467   c-0.352-0.233,0.403-2.541,1.192-5.977c2.116-9.222,4.629-21.388,4.916-38.113c0.143-8.345-0.672-17.207-2.579-25.055   c26.139-27.545,47.275-43.111,71.711-53.204c13.302-5.498,22.31-7.027,25.309-7.403c2.305-0.283,5.725-0.573,6.111,0.548   c0.486,1.404-3.117,3.204-6.245,5.07c-14.04,8.365-32.867,23.478-58.103,57.822C431.21,82.624,416.02,107.702,403.815,129.298z    M477.093,152.006c-8.249,7.459-13.585,9.417-17.048,9.001c-3.641-0.442-5.047-4.456-4.692-9.753   c1.089-16.21,18.418-34.685,33.236-41.855c7.518-3.636,12.133-3.777,15.77-3.694c6.368,0.139,10.177,2.636,10.177,2.636   C512.159,111.904,501.299,130.116,477.093,152.006z M438.095,212.474c-28.074,25.744-54.842,33.523-72.837,33.523   c-5.756,0-28.852-0.495-28.852-20.513c0-29.01,49.492-43.157,88.642-44.917c15.153-0.679,28.797,0.124,40.979,2.106   C459.096,191.478,448.778,202.678,438.095,212.474z M458.821,277.979c-1.161,9.406-10.143,27.58-23.268,39.367   c-5.979,5.373-12.625,8.145-17.612,8.145c-5.593,0-7.89-4.914-7.721-10.273c0.512-16.398,17.325-34.842,31.783-43.055   c3.569-2.027,8.493-4.028,11.802-3.799C456.593,268.556,459.842,269.682,458.821,277.979z M564.165,315.86   c-8.115,7.455-13.031,9.266-16.002,8.959c-3.715-0.385-4.864-4.492-4.378-9.793c1.438-15.645,18.407-34.211,32.767-41.473   c6.84-3.461,11.299-4.08,15.396-4.08c6.76,0,9.167,2.893,9.167,2.893C598.999,275.267,586.829,295.057,564.165,315.86z"/>
</g>
</svg>