<?xml version="1.0" encoding="UTF-8"?>
<svg width="421px" height="99px" viewBox="0 0 421 99" version="1.1" xmlns="http://www.w3.org/2000/svg" xmlns:xlink="http://www.w3.org/1999/xlink">
    <!-- Generator: Sketch 44.1 (41455) - http://www.bohemiancoding.com/sketch -->
    <title>Marucci_word_blk</title>
    <desc>Created with Sketch.</desc>
    <defs></defs>
    <g id="Page-1" stroke="none" stroke-width="1" fill="none" fill-rule="evenodd">
        <g id="Marucci_word_blk" fill="#DA291C">
            <path d="M34.232,24.916 L32.455,33.246 L32.715,33.246 C37.441,26.715 44.58,23.254 50.174,22.87 C56.79,22.482 62.253,26.323 63.28,32.348 L63.537,32.348 C68.612,25.943 74.646,22.87 80.421,22.87 C90.029,22.87 97.502,28.123 95.427,37.86 L82.93,96.688 L62.538,96.688 L73.446,45.418 C73.901,42.089 73.217,39.275 69.317,39.517 C65.698,39.663 63.337,41.702 62.55,45.418 L51.644,96.688 L31.272,96.688 L42.173,45.418 C42.182,42.341 42.016,39.517 38.559,39.517 C34.457,39.517 32.352,41.572 31.276,45.418 L20.38,96.688 L0,96.688 L15.263,24.916 L34.232,24.916" id="Fill-1"></path>
            <path d="M133.641,61.822 C129.073,64.006 125.244,65.154 122.27,67.088 C119.322,68.871 116.599,71.43 115.564,76.313 C114.611,80.801 116.619,83.99 121.491,83.99 C127.517,83.99 130.133,77.715 131.239,73.113 L133.641,61.822 Z M128.358,90.283 C122.036,95.918 117.016,99 108.949,99 C97.409,99 91.898,91.176 94.328,79.77 C97.785,63.488 107.712,58.373 117.319,55.422 C126.789,52.473 135.822,51.576 137.45,43.885 C138.299,39.91 136.73,36.453 132.626,36.453 C125.189,36.453 124.105,41.572 122.436,47.597 L102.059,47.597 C104.983,29.659 118.469,22.87 134.874,22.87 C154.992,22.87 160.99,29.012 157.64,44.782 L148.295,88.738 C147.723,91.432 147.919,94.123 148.27,96.688 L128.402,96.688 L128.358,90.283 L128.358,90.283 Z" id="Fill-2"></path>
            <path d="M189.901,24.916 L187.582,35.801 L187.831,35.801 C191.782,28.123 197.898,22.87 206.352,22.87 L201.452,45.939 C199.482,45.559 197.457,45.418 195.404,45.418 C189.64,45.418 187.085,46.569 185.449,52.473 L176.053,96.688 L155.665,96.688 L170.928,24.916 L189.901,24.916" id="Fill-3"></path>
            <path d="M231.957,96.688 L233.832,87.851 L233.582,87.851 C230.485,93.348 223.392,99 216.987,99 C205.186,99 199.93,93.607 202.001,83.861 L214.528,24.916 L234.908,24.916 L223.977,76.313 C223.521,79.639 223.796,82.592 227.698,82.336 C231.313,82.199 234.083,80.027 234.876,76.313 L245.801,24.916 L266.181,24.916 L250.928,96.688 L231.957,96.688" id="Fill-4"></path>
            <path d="M301.707,51.576 L301.856,50.291 C302.03,47.602 302.763,44.782 302.828,42.085 C302.548,39.142 301.331,37.597 298.274,37.597 C293.016,37.597 291.238,41.706 290.276,46.32 L283.967,75.924 C283.013,80.416 283.49,84.266 288.734,84.266 C296.3,84.266 297.408,72.973 298.565,67.594 L318.294,67.594 C317.393,71.826 314.975,80.797 313,84.639 C308.391,93.607 299.838,97.715 290.805,98.613 C288.852,98.742 287.008,98.996 283.935,98.996 C269.33,98.996 259.939,93.098 263.425,76.695 L269.639,47.472 C273.567,29.012 284.355,22.866 300.122,22.866 C320.187,23.121 326.28,31.843 320.926,51.576 L301.707,51.576" id="Fill-5"></path>
            <path d="M361.781,51.576 L361.933,50.291 C362.108,47.602 362.84,44.782 362.901,42.085 C362.622,39.142 361.409,37.597 358.335,37.597 C353.091,37.597 351.311,41.706 350.332,46.32 L344.045,75.924 C343.086,80.416 343.555,84.266 348.804,84.266 C356.365,84.266 357.481,72.973 358.638,67.594 L378.363,67.594 C377.481,71.826 375.059,80.797 373.082,84.639 C368.476,93.607 359.92,97.715 350.882,98.613 C348.934,98.742 347.082,98.996 344.012,98.996 C329.403,98.996 320.012,93.098 323.503,76.695 L329.714,47.472 C333.64,29.012 344.437,22.866 360.204,22.866 C380.26,23.121 386.362,31.843 381.008,51.576 L361.781,51.576" id="Fill-6"></path>
            <path d="M396.862,17.876 L400.543,0.569 L420.918,0.569 L417.234,17.876 L396.862,17.876 Z M380.097,96.688 L395.363,24.916 L415.744,24.916 L400.486,96.688 L380.097,96.688 L380.097,96.688 Z" id="Fill-7"></path>
        </g>
    </g>
</svg>