<svg xmlns="http://www.w3.org/2000/svg" width="535.35" height="98.01" viewBox="0 0 535.35 98.01">
  <title>logo-black</title>
    <g id="Layer_1" data-name="Layer 1">
      <g>
        <g>
          <path d="M56.94,28.39c12.88,5.34,25.43,4.58,28-1.7S79.23,11,66.35,5.67s-25.42-4.57-28,1.7,5.74,15.69,18.61,21M66.23,6C78.72,11.14,86.85,20.15,84.39,26.1s-14.58,6.57-27.08,1.4S36.69,13.31,39.16,7.36,53.74.79,66.23,6Z" fill="#bcbec0"/>
          <path d="M61.7,16.92c4.63,1.92,9.17,1.59,10.13-.73s-2-5.77-6.64-7.69S56,6.91,55.06,9.24s2,5.77,6.64,7.68m3.39-8.18c4.32,1.79,7.13,4.91,6.28,7S66.32,18,62,16.21s-7.13-4.91-6.27-7S60.77,7,65.09,8.74Z" fill="#bcbec0"/>
          <path d="M92.22,68.48a12.56,12.56,0,0,1-2.54,3.75c-2,2.12-5.77,4.36-10.9,5.39-10.24,2.21-25.1.26-39.8-5.85s-26.6-15.2-32.28-24c-2.89-4.35-4-8.61-3.89-11.52a12.78,12.78,0,0,1,.85-4.44,12.61,12.61,0,0,0-1,4.44c-.19,2.93.8,7.3,3.64,11.77,5.55,9.06,17.45,18.5,32.31,24.63s29.94,7.92,40.27,5.44c5.17-1.16,9-3.55,10.9-5.75a12.17,12.17,0,0,0,2.43-3.85" fill="#bcbec0"/>
          <path d="M12.51,32.16C17.18,42.07,29.42,52,44.56,58.28s30.83,7.9,41.15,4.2c5.16-1.78,8.42-5.3,9.39-8.17a11.85,11.85,0,0,0,.8-4.57,12.13,12.13,0,0,1-1,4.5c-1.07,2.79-4.34,6.08-9.42,7.69C75.34,65.28,60,63.4,45,57.21S17.85,41.47,13,31.9c-2.47-4.73-2.45-9.37-1.23-12.09A11.75,11.75,0,0,1,14.32,16a11.79,11.79,0,0,0-2.69,3.79c-1.34,2.71-1.52,7.51.88,12.42" fill="#bcbec0"/>
          <path d="M68.35,89.54c-8.94,1.09-21.57-.76-34.24-6S11.17,70.66,5.62,63.57C-.19,56.47,0,50.28,0,50.41c0-.15-.41,6.09,5.32,13.38C10.79,71.06,21,78.9,33.84,84.16s25.56,7,34.55,5.73c9.21-1.11,13.38-5.74,13.24-5.67.13-.06-4.16,4.4-13.28,5.32" fill="#bcbec0"/>
          <path d="M1.19,60.57h0" fill="#bcbec0"/>
          <path d="M31,91.1C21.9,87.35,14.48,82.21,10,77.6a28.73,28.73,0,0,1-6-8.41,27.8,27.8,0,0,0,5.84,8.58c4.4,4.73,11.81,10,20.92,13.79s18.11,5.26,24.56,5a28.71,28.71,0,0,0,10.21-1.89,29.53,29.53,0,0,1-10.22,1.64C48.9,96.44,40,94.86,31,91.1" fill="#bcbec0"/>
          <path d="M50.89,43c13.77,5.65,28.67,7.15,37.43,1.73A9.91,9.91,0,0,0,93,34.6a15.13,15.13,0,0,0-1.25-4.07,15.53,15.53,0,0,1,1.07,4.09A9.63,9.63,0,0,1,88,44.24c-8.54,5-23.12,3.25-36.68-2.32s-25-14.74-27.56-24.3A9.62,9.62,0,0,1,27.21,7.45a15.49,15.49,0,0,1,3.65-2.12,15.21,15.21,0,0,0-3.76,2,9.92,9.92,0,0,0-3.9,10.44c2.36,10,14,19.5,27.69,25.24" fill="#bcbec0"/>
          <path d="M75.09,10.54a7.41,7.41,0,0,0-5.67-.68,29.16,29.16,0,0,0-5.58,1.92,17.76,17.76,0,0,1,5.5-2.3,6.6,6.6,0,0,1,5.75,1.06" fill="#bcbec0"/>
          <path d="M63.84,11.78a55.5,55.5,0,0,0-10.92,8.47,136.25,136.25,0,0,0-20.73,26c-6.89,11-11.77,21.95-13.42,30.33-.84,4.16-.79,7.7,0,9.95a6.39,6.39,0,0,0,2.06,3,6.32,6.32,0,0,1-2.23-3c-.94-2.25-1.14-5.86-.43-10.12,1.39-8.54,6.06-19.7,13-30.83A120.66,120.66,0,0,1,52.53,19.82a51.66,51.66,0,0,1,11.31-8" fill="#bcbec0"/>
          <path d="M63.32,4.65a1.24,1.24,0,0,1,.73.8,6.86,6.86,0,0,1,.32,2.64,19.5,19.5,0,0,1-.53,3.69s.07-1.67.14-3.7c.24-2.07-.4-3.6-.66-3.43" fill="#bcbec0"/>
          <path d="M63.84,11.78a112,112,0,0,1-2.39,13,302.06,302.06,0,0,1-9,30.66A253.61,253.61,0,0,1,40.27,85a58.5,58.5,0,0,1-4.92,8.36c-1.32,2-2.71,2.31-2.71,2.1,0,.2,1.35-.22,2.56-2.21a61.16,61.16,0,0,0,4.55-8.5c3.42-7.4,7.52-17.91,11.61-29.67s7.43-22.53,9.53-30.42,2.94-12.88,3-12.88" fill="#bcbec0"/>
          <path d="M56.75,2.94a6.62,6.62,0,0,1,4.82,3.32,17.8,17.8,0,0,1,2.27,5.52,28.88,28.88,0,0,0-2.59-5.31,7.45,7.45,0,0,0-4.5-3.53" fill="#bcbec0"/>
          <path d="M63.84,11.78a52.08,52.08,0,0,1,2.32,13.68A120.91,120.91,0,0,1,63,58.83c-3,12.78-7.56,24-12.63,31-2.51,3.51-5.2,5.92-7.46,6.84a6.32,6.32,0,0,1-3.66.51,6.35,6.35,0,0,0,3.58-.67c2.17-1,4.71-3.47,7.07-7,4.76-7.09,9-18.25,12-30.93a135.89,135.89,0,0,0,3.75-33.08,55.12,55.12,0,0,0-1.74-13.71" fill="#bcbec0"/>
          <path d="M26.72,93c-.15.15-.87-1.1-.43-3.41a57.92,57.92,0,0,1,2.44-9.38A255.49,255.49,0,0,1,41,50.72a306.33,306.33,0,0,1,15.31-28,111.93,111.93,0,0,1,7.52-10.9s-3,4.1-7,11.2S47.48,40,42.06,51.23s-10,21.53-12.78,29.18a62.52,62.52,0,0,0-2.81,9.22c-.55,2.27.1,3.51.25,3.38" fill="#bcbec0"/>
          <path d="M63.84,11.78a19.59,19.59,0,0,1,2.22-3,6.91,6.91,0,0,1,2.09-1.64,1.12,1.12,0,0,1,1.08,0c-.06-.32-1.59.32-2.88,2s-2.5,2.74-2.51,2.72" fill="#bcbec0"/>
          <path d="M81.2,15.52A16,16,0,0,0,73,11.75a31.65,31.65,0,0,0-9.15,0,23.64,23.64,0,0,1,9.23-.51,13.87,13.87,0,0,1,8.13,4.25" fill="#bcbec0"/>
          <path d="M63.84,11.78a49,49,0,0,0-13.42,5.29c-7.81,4.27-17.68,12.05-26,22.79S11,62.29,10.58,71.23A19.94,19.94,0,0,0,12.5,81.45a15.67,15.67,0,0,0,2.25,3.15,15.3,15.3,0,0,1-2.4-3.07,19.86,19.86,0,0,1-2.3-10.32c.11-9.11,5-21.17,13.49-32S42.17,20.67,50.17,16.6a46.4,46.4,0,0,1,13.67-4.82" fill="#bcbec0"/>
          <path d="M48.91,2.13a13.84,13.84,0,0,1,8.75,2.75,23.74,23.74,0,0,1,6.18,6.9,32,32,0,0,0-6.45-6.51,16,16,0,0,0-8.48-3.14" fill="#bcbec0"/>
          <path d="M63.84,11.78A46.65,46.65,0,0,1,70.1,24.86C72.88,33.39,74.66,46,73,59.68S66.21,85.33,59.84,91.84a19.8,19.8,0,0,1-8.93,5.68,15,15,0,0,1-3.86.47,15.55,15.55,0,0,0,3.82-.63,19.93,19.93,0,0,0,8.58-5.88C65.51,84.91,70.24,73,71.9,59.55s.2-26-2.31-34.54a48.76,48.76,0,0,0-5.75-13.23" fill="#bcbec0"/>
          <path d="M.43,44.18A35.48,35.48,0,0,1,3.64,32.74c3-6.71,10.06-15,20.45-19.64A52.22,52.22,0,0,1,52.3,8.87a55.28,55.28,0,0,1,11.54,2.91A60.16,60.16,0,0,0,52.26,9.25,54.17,54.17,0,0,0,24.41,13.8C14.2,18.41,7.14,26.34,4,32.91A36.55,36.55,0,0,0,.43,44.18" fill="#bcbec0"/>
          <path d="M9.2,21.91a35.46,35.46,0,0,1,5.9-6.59A38.19,38.19,0,0,1,34.45,6.61a47.21,47.21,0,0,1,21.21,1.8,53.27,53.27,0,0,1,8.18,3.37,59.81,59.81,0,0,0-8.29-3,50.47,50.47,0,0,0-21-1.41,40,40,0,0,0-19.22,8.25A38,38,0,0,0,9.2,21.91" fill="#bcbec0"/>
          <path d="M8.46,77.18A24,24,0,0,1,4,63.24C3.66,54,8.7,41.33,18.59,31.32A66.19,66.19,0,0,1,49.16,13.39a49.93,49.93,0,0,1,14.68-1.61,52.33,52.33,0,0,0-14.55,2.08A68.63,68.63,0,0,0,19.28,32C9.55,41.85,4.4,54.13,4.53,63.24A24.49,24.49,0,0,0,8.46,77.18" fill="#bcbec0"/>
          <path d="M63.84,11.78a33.2,33.2,0,0,1,13.32,2.49,22.74,22.74,0,0,1,10.33,8.66A26.09,26.09,0,0,0,76.93,14.8a41.2,41.2,0,0,0-13.09-3" fill="#bcbec0"/>
          <path d="M85.79,79.53a37.25,37.25,0,0,0,5.45-10.48c2.41-6.88,3-17.48-.94-28a54.07,54.07,0,0,0-16.48-22.9,59.48,59.48,0,0,0-10-6.4,55.46,55.46,0,0,1,10.22,6.1A52.15,52.15,0,0,1,91,40.82c4,10.66,3.2,21.48.57,28.35a35.54,35.54,0,0,1-5.81,10.36" fill="#bcbec0"/>
          <path d="M95.32,57.59a38,38,0,0,0,.11-8.8,40,40,0,0,0-7.77-19.42A50.42,50.42,0,0,0,71.82,15.52a60.88,60.88,0,0,0-8-3.74A53.82,53.82,0,0,1,72,15.18,47.15,47.15,0,0,1,88.28,28.91a38.14,38.14,0,0,1,7.53,19.85,35.16,35.16,0,0,1-.49,8.83" fill="#bcbec0"/>
          <path d="M69.8,92.72a31.53,31.53,0,0,0,10.51-9.08c5.33-6.78,9.14-18.9,7.3-32a59.5,59.5,0,0,0-13.47-30.4,57.32,57.32,0,0,0-10.3-9.46A54.69,54.69,0,0,1,74.47,21a57.84,57.84,0,0,1,14,30.58c1.87,13.32-2.25,25.66-7.82,32.38A30.78,30.78,0,0,1,69.8,92.72" fill="#bcbec0"/>
          <path d="M63.84,11.78a49.44,49.44,0,0,0-18.38-7A33.78,33.78,0,0,0,26.15,7.39a31.16,31.16,0,0,1,5.38-2.27,31.46,31.46,0,0,1,14-1,42.61,42.61,0,0,1,18.28,7.65" fill="#bcbec0"/>
          <path d="M2.37,64.8A30.89,30.89,0,0,1,.94,50.89c.81-8.69,6.63-20.32,17.38-28.41A57.82,57.82,0,0,1,49.84,10.75a54.48,54.48,0,0,1,14,1,57.54,57.54,0,0,0-14-.59,59.47,59.47,0,0,0-31,12C8.29,31.12,2.4,42.38,1.37,51a31.6,31.6,0,0,0,1,13.85" fill="#bcbec0"/>
          <path d="M63.84,11.78a42.64,42.64,0,0,1,18.33,7.51,31.58,31.58,0,0,1,9.22,10.62,31.25,31.25,0,0,1,2.19,5.41A33.92,33.92,0,0,0,81.77,19.83a49.52,49.52,0,0,0-17.93-8" fill="#bcbec0"/>
          <path d="M56.74,97.18A24.37,24.37,0,0,0,69.38,90.1C75.92,83.76,81,71.44,81.06,57.58a68.6,68.6,0,0,0-8.39-34,52.18,52.18,0,0,0-8.83-11.75,49.65,49.65,0,0,1,9.24,11.51A66.1,66.1,0,0,1,82,57.6c-.09,14.07-5.49,26.58-12.31,32.85a24,24,0,0,1-13,6.73" fill="#bcbec0"/>
          <path d="M63.84,11.78a41.37,41.37,0,0,0-11.4-7.12A26.2,26.2,0,0,0,39.22,2.93,22.76,22.76,0,0,1,52.65,4.12a33.34,33.34,0,0,1,11.19,7.66" fill="#bcbec0"/>
          <path d="M94.75,39.6h0" fill="#bcbec0"/>
          <path d="M39.21,97.18a6.35,6.35,0,0,1-5-3.22,15,15,0,0,1-2.1-5.63,39.11,39.11,0,0,0,2.75,5.21,8,8,0,0,0,4.34,3.64" fill="#58595b"/>
          <path d="M32.12,88.33a49.45,49.45,0,0,1-2.61-13.67,114.17,114.17,0,0,1,2.93-33.5c3-12.85,7.72-24,13-31C48,6.63,50.75,4.24,53.05,3.36a6.24,6.24,0,0,1,3.7-.42,6.28,6.28,0,0,0-3.55.75c-2.12,1-4.59,3.54-6.86,7.09-4.61,7.12-8.73,18.27-11.65,30.9a145.39,145.39,0,0,0-4,32.93,56.54,56.54,0,0,0,1.46,13.72" fill="#58595b"/>
          <path d="M69.23,7.11c.15-.16.92,1.08.52,3.42A56.6,56.6,0,0,1,67.5,20a225.29,225.29,0,0,1-12,29.66A262.82,262.82,0,0,1,39.88,77.59a105.92,105.92,0,0,1-7.76,10.74S35,84.15,38.89,77,48,59.83,53.38,48.64s10.07-21.44,13-29a63.85,63.85,0,0,0,3-9.14c.6-2.25,0-3.48-.16-3.36" fill="#58595b"/>
          <path d="M32.12,88.33A13.06,13.06,0,0,1,30,91.45,5.86,5.86,0,0,1,27.85,93a1.17,1.17,0,0,1-1.13,0c.12.29,1.47-.48,2.75-2.09a29.71,29.71,0,0,1,2.65-2.59" fill="#58595b"/>
          <path d="M14.76,84.6A17.47,17.47,0,0,0,23,88.13a38.62,38.62,0,0,0,9.12.2,21,21,0,0,1-9.28.75,13,13,0,0,1-8.08-4.48" fill="#58595b"/>
          <path d="M32.12,88.33a49.74,49.74,0,0,0,13.29-5.52A91.64,91.64,0,0,0,71.16,59.93c8.3-10.63,13.44-22.21,14-31A19.83,19.83,0,0,0,83.38,18.7a15.25,15.25,0,0,0-2.18-3.18,14.59,14.59,0,0,1,2.47,3,19.77,19.77,0,0,1,2.5,10.36c0,9.2-4.82,21.43-13.34,32.32S54,79.78,45.91,83.75a45.34,45.34,0,0,1-13.79,4.58" fill="#58595b"/>
          <path d="M86.75,78.2A33.75,33.75,0,0,1,81,84.94a37.3,37.3,0,0,1-19.42,8.94,45.64,45.64,0,0,1-21.32-2,48.41,48.41,0,0,1-8.12-3.56,55.22,55.22,0,0,0,29.21,4,41.07,41.07,0,0,0,19.16-8,39.19,39.19,0,0,0,6.26-6.15" fill="#58595b"/>
          <path d="M10.17,20.58A37.83,37.83,0,0,0,4.9,31.13C2.59,38,2.09,48.5,6,58.9A55.16,55.16,0,0,0,22.26,81.79a60.94,60.94,0,0,0,9.86,6.54,53.06,53.06,0,0,1-10.35-5.94,51.41,51.41,0,0,1-17.21-23C.5,48.67,1.44,37.75,4.17,30.88a34.84,34.84,0,0,1,6-10.3" fill="#58595b"/>
          <path d="M93.58,35.32a30.44,30.44,0,0,1,1.65,13.93C94.52,58,88.74,69.83,77.9,78a57,57,0,0,1-31.77,11.6,53,53,0,0,1-14-1.25,58.63,58.63,0,0,0,14,.38,60.54,60.54,0,0,0,30.77-12.1c10.47-7.9,16.39-19,17.53-27.47a31.86,31.86,0,0,0-.79-13.82" fill="#58595b"/>
          <path d="M32.12,88.33A39.85,39.85,0,0,1,13.58,81.1,30.29,30.29,0,0,1,4.42,70.28a29.38,29.38,0,0,1-2-5.48A35.71,35.71,0,0,0,14.39,80a53.41,53.41,0,0,0,17.73,8.32" fill="#58595b"/>
          <path d="M39.22,2.93a24.61,24.61,0,0,0-12.48,7.25c-6.39,6.39-11.27,18.61-11.37,32.36A70,70,0,0,0,23.5,76.46a52.91,52.91,0,0,0,8.62,11.87,48.27,48.27,0,0,1-9.46-11.39,65,65,0,0,1-9.22-34.43c.09-14.18,5.66-26.79,12.62-33A24,24,0,0,1,39.22,2.93" fill="#58595b"/>
          <path d="M32.12,88.33a47.07,47.07,0,0,0,11.5,6.86,28.18,28.18,0,0,0,13.12,2,21.47,21.47,0,0,1-13.54-.91,30.08,30.08,0,0,1-11.08-7.94" fill="#58595b"/>
          <path d="M6.31,28c2-2.09,5.79-4.26,10.9-5.22,10.19-2.08,24.93,0,39.57,6.05S83.3,43.84,89,52.52c2.93,4.29,4.07,8.5,4,11.4a12.27,12.27,0,0,1-.78,4.44,12,12,0,0,0,1.07-4.43c.23-3-.7-7.37-3.51-11.91-5.49-9.18-17.4-18.78-32.33-24.94S27.37,19.24,17,21.85c-5.2,1.22-9,3.69-10.91,5.93a12.12,12.12,0,0,0-2.37,3.9A11.94,11.94,0,0,1,6.31,28" fill="#58595b"/>
          <path d="M83.69,67.88c-4.6-10.09-16.86-20.21-32.1-26.54s-31.07-7.81-41.46-3.93c-5.2,1.87-8.46,5.5-9.38,8.41A11.79,11.79,0,0,0,0,50.43a12.28,12.28,0,0,1,1-4.48C2.19,43.21,5.47,40,10.52,38.5c10.1-3.17,25.33-1.16,40.19,5s27,15.51,31.94,24.9c2.5,4.65,2.56,9.21,1.41,11.94a12.34,12.34,0,0,1-2.44,3.89,11.8,11.8,0,0,0,2.77-3.75c1.4-2.71,1.66-7.58-.7-12.58" fill="#58595b"/>
          <path d="M27.61,10.8c8.91-1,21.46.93,34.08,6.2S84.58,29.7,90.17,36.7c5.86,7,5.8,13.17,5.74,13,0,.15.52-6.1-5.17-13.49C85.34,28.91,75.08,21,62.24,15.67s-25.7-7-34.72-5.58C18.28,11.3,14.16,16,14.3,15.94c-.12.05,4.22-4.32,13.31-5.14" fill="#58595b"/>
          <path d="M64.89,9.28c9,3.74,16.44,8.81,20.94,13.37A28.68,28.68,0,0,1,91.93,31a27.31,27.31,0,0,0-5.75-8.67C81.82,17.52,74.41,12.16,65.27,8.37S47.08,3.15,40.62,3.45a28.35,28.35,0,0,0-10.21,2A29.94,29.94,0,0,1,40.62,4C47,3.9,55.86,5.55,64.89,9.28" fill="#58595b"/>
          <path d="M45.27,56.63C31.39,51,16.33,49.54,7.46,55.19A10.11,10.11,0,0,0,2.88,65.57a15.08,15.08,0,0,0,1.35,4.06,15.78,15.78,0,0,1-1-4.11,9.49,9.49,0,0,1,4.84-9.36c8.43-4.74,22.85-2.92,36.3,2.61s24.9,14.51,27.5,23.83a9.43,9.43,0,0,1-3.21,10,15.55,15.55,0,0,1-3.6,2.2,14.73,14.73,0,0,0,3.82-1.91A10.06,10.06,0,0,0,73,82.35C70.74,72.08,59.1,62.43,45.27,56.63" fill="#58595b"/>
          <path d="M39.18,71.33c-13.08-5.42-25.82-4.64-28.46,1.73S16.54,89,29.61,94.41s25.82,4.64,28.46-1.74S52.25,76.74,39.18,71.33M29.67,94.27c-12.3-5.09-20.3-14-17.88-19.81S26.14,68,38.44,73.11s20.3,14,17.88,19.8S42,99.36,29.67,94.27Z" fill="#58595b"/>
          <path d="M34.38,82.88c-4.78-2-9.49-1.6-10.51.86s2,6.06,6.83,8,9.49,1.6,10.51-.86-2-6.06-6.83-8m-3.49,8.44c-4.17-1.73-6.9-4.7-6.09-6.64s4.83-2.1,9-.37,6.9,4.69,6.1,6.63S35.06,93,30.89,91.32Z" fill="#58595b"/>
          <polyline points="13.84 28.18 40.98 8.41 36.23 20.4" fill="#2e2e31"/>
          <path d="M13.93,27.91a73.53,73.53,0,0,1,5.15-7.24c1.43-1.56,4.85-5.33,5.78-6.22s3-3.24,3-3.24,5.82-1.38,8-1.6,4.77-.43,4.77-.43l.07.21L13.93,27.91" fill="#c6c7c9"/>
          <g>
            <path d="M40.64,9.18S39.1,5,39,4.59l-.6-1.69a15.43,15.43,0,0,1,2.27-1.1A27.15,27.15,0,0,1,44.86.39,38.38,38.38,0,0,1,49,0c.63,0-2,1.54-3.23,2.92s-2,3-2.82,3.92-2.34,2.34-2.34,2.34" fill="#e1e1e2"/>
            <path d="M40.77,9.18S44,3.81,45.51,2.27A8.33,8.33,0,0,1,48.36.21,1.57,1.57,0,0,1,49.17,0a4.08,4.08,0,0,1,1,1.72,30.92,30.92,0,0,1,.71,3.39S47.78,6,46.22,6.6,42.8,8,42.15,8.35s-1.38.83-1.38.83" fill="#2e2e31"/>
          </g>
          <path d="M40.73,9.09A65.11,65.11,0,0,1,47.12,13c2,1.51,4.53,3.38,4.53,3.38s.26,7.37,0,11.46-.75,15.09-1.77,17.5c-.11.25-2.33-11.05-4.14-18.32-1.73-6.93-3.64-13.21-5-17.93" fill="#2e2e31"/>
          <path d="M40.73,9.09s-2.4,4.45-3.11,6.13-1.79,5.51-1.79,5.51,5.79,8.62,7,10.75S48.72,42.67,49,43.29s.89,2.05.89,2.05-.8-6.93-1.43-10-3.64-14.3-3.64-14.3l-4.08-12" fill="#919496"/>
          <path d="M50.73,5s-3.45,1-5.1,1.63a49.73,49.73,0,0,0-4.9,2.44s7.9.69,11.89,1.15c4.14.47,20.69,6.65,23.15,7.53,0,0-12.11-7-13.43-7.64s-5.51-2.82-7.67-3.69S50.73,5,50.73,5" fill="#787b7e"/>
          <path d="M40.73,9.08s5.13,0,7.34.28a89.42,89.42,0,0,1,14.19,3.31c5.16,1.75,13.51,5.1,13.51,5.1a90.13,90.13,0,0,0-10-1.65,83.71,83.71,0,0,0-11,0,28.73,28.73,0,0,0-3.12.49S48,13.63,46.77,12.89s-6-3.81-6-3.81" fill="#494a4e"/>
          <path d="M38.49,2.9l2.27,6.2s-1.2.46-4.22-.73A21.92,21.92,0,0,0,29.61,6.5a28.53,28.53,0,0,0-3.69,0,12.3,12.3,0,0,0-3,.73,6.85,6.85,0,0,1,1.47-1,27.36,27.36,0,0,1,6.22-2.4,34.74,34.74,0,0,1,7.9-.87" fill="#c6c7c9"/>
          <path d="M22.3,7.32a15.59,15.59,0,0,1,2-.84,12.53,12.53,0,0,1,6.26-.62,44.69,44.69,0,0,1,7.88,2.28l2.29,1s-2,.09-3.47.24-4.28.6-5.76.89-3.65.89-3.65.89a13.65,13.65,0,0,0-1.31-1.44,16.18,16.18,0,0,0-2.33-1.89,2.76,2.76,0,0,0-1-.51,8.06,8.06,0,0,0-.91,0" fill="#787b7e"/>
          <path d="M90.34,53.31a56,56,0,0,0,4.41-5.77,15.92,15.92,0,0,1,1.13-2,16.22,16.22,0,0,1,2.48,4.3,13.48,13.48,0,0,1,.74,5.09c-.23,1.19-.06-.09-2.19-.38s-6.57-1.25-6.57-1.25" fill="#787b7e"/>
          <path d="M61.23,32.64s9.31,10.75,10.46,12.15,5.82,7.79,5.82,7.79l12.83.73a67.3,67.3,0,0,0-5-5.15c-2.07-1.78-9.62-7.46-11.73-8.73s-7.46-4.5-8.57-5-3.8-1.8-3.8-1.8" fill="#787b7e"/>
          <path d="M85.78,38.83a56,56,0,0,1,3.1,6.24c.38,1.4,1.46,8.24,1.46,8.24S79.11,44.36,77,42.94s-11.55-7.37-12.77-8.21l-3-2.09A59.81,59.81,0,0,1,70.56,34a105.43,105.43,0,0,1,15.22,4.82" fill="#c6c7c9"/>
          <path d="M77.43,52.36l12.91,1s-4.71,7-11.11,10-17.88,7.49-17.88,7.49,7.46-7.79,9.12-9.62,7-8.8,7-8.8" fill="#c6c7c9"/>
          <path d="M94.93,61.4a13.89,13.89,0,0,0,2.69-2.85,17.15,17.15,0,0,0,1.48-3.61s.06-1.09-3.67-1.3-5.09-.33-5.09-.33A30.3,30.3,0,0,1,92.91,57c.71,1.37,2,4.45,2,4.45" fill="#494a4e"/>
          <path d="M61.35,70.78s10.28-4.59,14.27-6.87a121.71,121.71,0,0,0,11.91-8c1.54-1.31,2.81-2.64,2.81-2.64s-.42,2.61-.89,5a51.2,51.2,0,0,1-2.69,7.55c-.36.83-1.6.29-1.6.29s-3.23,1-5.72,1.48-10.3,2-12.79,2.31-5.3.83-5.3.83" fill="#2e2e31"/>
          <path d="M85.16,66.16a25.83,25.83,0,0,1,1.89,6.31c.48,3.26.71,5.51.71,5.51s2-2,3.35-8.5,1.09-8.41.77-11a20.55,20.55,0,0,0-1.54-5.18,41.05,41.05,0,0,1-1.42,4.53c-1,2.81-3.76,8.32-3.76,8.32" fill="#919496"/>
          <path d="M90.34,53.31a61,61,0,0,1,.71,8.29C91,65,90.6,71,89.54,73.86A29.4,29.4,0,0,1,87.76,78a23.29,23.29,0,0,0,3.79-5.54,72.71,72.71,0,0,0,2.9-8.71c.33-1.33.48-2.33.48-2.33a38.21,38.21,0,0,0-1.84-4.09c-.83-1.45-2.75-4-2.75-4" fill="#2e2e31"/>
          <path d="M90.34,53.17A45.43,45.43,0,0,0,92,42.09c.11-6-.18-10-.83-12.55s-1.84-6-1.84-6A26.5,26.5,0,0,1,88.62,31a80.16,80.16,0,0,1-2.84,7.81S88.5,45.35,89,47.48s1.3,5.69,1.3,5.69" fill="#e1e1e2"/>
          <path d="M89.33,23.56a33.88,33.88,0,0,1,4.21,8.85,69.27,69.27,0,0,1,2,9.59c.15,1.42.36,3.55.36,3.55s-1.4,2.55-2.17,3.59-3.37,4.17-3.37,4.17a23.82,23.82,0,0,0,1.21-6.25,61.27,61.27,0,0,0,.18-13.76,49.18,49.18,0,0,0-1.51-7.23,26.09,26.09,0,0,0-.89-2.51" fill="#2e2e31"/>
          <path d="M6.43,47.56s1.73,7.35,2.71,9.68,3.28,6.93,3.73,7.64,5.3,1.73,6.21,1.73h3.18a5.67,5.67,0,0,0,1.52-.36" fill="#787b7e"/>
          <path d="M6.49,47.65l11.66,4.07,1.91.84s2.27,8.59,2.62,9.84,1.1,3.85,1.1,3.85-6.25-4.72-8.6-7.32-5.07-5-7.2-8.68-1.49-2.6-1.49-2.6" fill="#c6c7c9"/>
          <path d="M18.15,51.71s2.55,7.91,3.23,9.48,2.4,5.06,2.4,5.06l6.78-28L31.39,32a56.08,56.08,0,0,0-4.92,5.77c-1.66,2.43-4.79,7.46-5.48,8.7s-2.84,5.27-2.84,5.27" fill="#e1e1e2"/>
          <path d="M34,57.55s10.69,4.23,12,4.82,7.64,3.44,8.62,4S57.86,68,57.86,68L23.78,66.25,34,57.55" fill="#787b7e"/>
          <path d="M36.54,75.11S45,72.91,47.11,72.2,57.86,68,57.86,68L23.78,66.25l12.76,8.86" fill="#494a4e"/>
          <path d="M23.78,66.25l-13,10.56a25.17,25.17,0,0,0,7.18.84,43,43,0,0,0,5.61-.18c.72-.11.76-9.15.76-9.15l-.59-2.07" fill="#2e2e31"/>
          <path d="M23.78,66.25S23,72,23,74.31s-.15,3.28-.15,3.28,5.15,4.56,6.75,5.63,6.84,4.35,10,5.12" fill="#494a4e"/>
          <path d="M23.78,66.25l12.76,8.86s1.09,6.16,1.36,7.49,1.54,5.59,1.66,5.74A30.84,30.84,0,0,1,31,79.16C27.6,73.45,25.2,70,23.78,66.25" fill="#2e2e31"/>
          <path d="M10.82,76.81a19.15,19.15,0,0,1,.58-7.44c1.13-4.11,1.4-4.75,1.4-4.75a35.25,35.25,0,0,0,4.51.84c2.55.31,6.08.72,6.53.75" fill="#494a4e"/>
          <path d="M31.39,32a161.55,161.55,0,0,0-4.83,17.2c-1.33,7-2.78,17.08-2.78,17.08L34,57.55,31.39,32" fill="#2e2e31"/>
        </g>
        <g>
          <path d="M129.75,38.21H117.52V29.4h34.55v8.81H139.83v36.9H129.75Z" fill="#199839"/>
          <path d="M152.47,40h8.47l.41,6.52c1.34-5,4.1-7.19,8.93-7.19h2.63v9.27H171c-5.17,0-7.66,2-8.6,6.86V75.11h-9.95Z" fill="#199839"/>
          <path d="M175.87,26.58h10.48v8.47H175.87ZM176.13,40h10V75.11h-10Z" fill="#199839"/>
          <path d="M205,61.33h9.81c0,4.43,2.49,6.38,7.39,6.38,4.44,0,6.66-1.61,6.66-4.9,0-3.77-2.42-5.38-9.21-6.46-10.15-1.61-14-5.37-14-13.71,0-9.34,5.71-14,16.6-14s16.07,4.57,16.07,14.19h-9.82c0-4-2.08-5.92-6.45-5.92-4.17,0-6.32,1.75-6.32,4.77,0,3.43,2.35,5,8.81,5.92C235.28,49.09,239,53.19,239,61.8c0,9.47-5.58,14.11-17,14.11C210.35,75.91,205,71.34,205,61.33Z" fill="#199839"/>
          <path d="M245.91,63.68V47.55H240.8V40h5.31l.53-8.74h9.21V40h7.26v7.53h-7.26V63.07c0,3.3.81,4.24,3.7,4.24h3.9v7.8h-7.33C248.93,75.11,245.91,71.75,245.91,63.68Z" fill="#199839"/>
          <path d="M267,65c0-7.39,4.64-11.49,14-11.49h6.46V52.39c0-3.63-1.42-5.38-5-5.38s-4.77,1.55-4.9,4H268c.54-7.8,5.25-11.77,14.92-11.77,9.95,0,14.52,4.17,14.52,13.31V75.11H289l-.33-4.37c-2.42,3.43-5.92,5.17-10.56,5.17C271.18,75.91,267,72,267,65Zm20.44-.87v-4h-4.64c-4.51,0-6,1.54-6,4.1s1.47,3.9,4.3,3.9A6.82,6.82,0,0,0,287.45,64.15Z" fill="#199839"/>
          <path d="M303.85,40h8.47l.4,6.52c1.34-5,4.1-7.19,8.94-7.19h2.62v9.27H322.4c-5.18,0-7.66,2-8.6,6.86V75.11h-9.95Z" fill="#199839"/>
          <path d="M342.7,29.4h14.79l9.74,29.84,9.68-29.84h14.92V75.11H381.75V40.62L370.39,75.11H363.6L352.24,40.62V75.11H342.7Z" fill="#2f313c"/>
          <path d="M396.34,61V54.13c0-9.74,5.38-14.92,15.59-14.92s15.66,5.31,15.66,15.06v6.38h-21.3v.68c0,4.57,1.81,6.79,6.11,6.79,3.37,0,5.31-1.35,5.52-3.77h9.47c-.4,7.6-5.58,11.56-15.05,11.56C401.72,75.91,396.34,70.87,396.34,61Zm21.84-7.33c0-4.7-1.74-6.65-5.91-6.65s-6,2-6,6.65Z" fill="#2f313c"/>
          <path d="M434.39,63.68V47.55h-5.11V40h5.31l.54-8.74h9.2V40h7.26v7.53h-7.26V63.07c0,3.3.81,4.24,3.7,4.24h3.9v7.8H444.6C437.41,75.11,434.39,71.75,434.39,63.68Z" fill="#2f313c"/>
          <path d="M454.22,65c0-7.39,4.63-11.49,14-11.49h6.45V52.39c0-3.63-1.41-5.38-5-5.38s-4.78,1.55-4.91,4h-9.61c.54-7.8,5.24-11.77,14.92-11.77,9.95,0,14.52,4.17,14.52,13.31V75.11h-8.4l-.34-4.37c-2.42,3.43-5.92,5.17-10.55,5.17C458.38,75.91,454.22,72,454.22,65Zm20.43-.87v-4H470c-4.5,0-6,1.54-6,4.1s1.48,3.9,4.3,3.9A6.81,6.81,0,0,0,474.65,64.15Z" fill="#2f313c"/>
          <path d="M491.05,26H501V75.11h-9.95Z" fill="#2f313c"/>
          <path d="M505.7,64.35h9.48c0,3,1.61,4.37,5.45,4.37,3.29,0,4.9-1,4.9-3.16,0-2.49-1.88-3.56-7.12-4.17-8.67-1-12.1-4-12.1-10.62,0-7.59,5.11-11.56,14.32-11.56s14,3.9,14,11.16h-9.48c0-2.75-1.34-4-4.57-4-3,0-4.44,1.14-4.44,3.15,0,2.29,1.82,3.3,6.93,3.9,8.87,1,12.3,4.3,12.3,11.09,0,7.67-4.84,11.36-14.79,11.36C510.41,75.91,505.7,72.15,505.7,64.35Z" fill="#2f313c"/>
        </g>
      </g>
    </g>
</svg>
